<mxfile host="65bd71144e">
    <diagram id="1ECLrePCUY1pzrCCHH44" name="Página-1">
        <mxGraphModel dx="1951" dy="417" grid="1" gridSize="10" guides="1" tooltips="1" connect="1" arrows="1" fold="1" page="1" pageScale="1" pageWidth="1654" pageHeight="2336" math="0" shadow="0">
            <root>
                <mxCell id="0"/>
                <mxCell id="1" parent="0"/>
                <mxCell id="7" value="" style="edgeStyle=none;html=1;" parent="1" source="2" edge="1">
                    <mxGeometry relative="1" as="geometry">
                        <mxPoint x="515" y="140" as="targetPoint"/>
                    </mxGeometry>
                </mxCell>
                <mxCell id="2" value="inicio" style="ellipse;whiteSpace=wrap;html=1;fillColor=#60a917;fontColor=#ffffff;strokeColor=#2D7600;" parent="1" vertex="1">
                    <mxGeometry x="470" y="40" width="90" height="60" as="geometry"/>
                </mxCell>
                <mxCell id="12" value="" style="edgeStyle=none;html=1;" parent="1" source="10" target="11" edge="1">
                    <mxGeometry relative="1" as="geometry"/>
                </mxCell>
                <mxCell id="10" value="x" style="shape=parallelogram;perimeter=parallelogramPerimeter;whiteSpace=wrap;html=1;fixedSize=1;fillColor=#008a00;fontColor=#ffffff;strokeColor=#005700;" parent="1" vertex="1">
                    <mxGeometry x="465" y="140" width="95" height="60" as="geometry"/>
                </mxCell>
                <mxCell id="dQfxzq-ZpPpkhSZyHVF7-13" value="" style="edgeStyle=none;html=1;" edge="1" parent="1" source="11" target="dQfxzq-ZpPpkhSZyHVF7-12">
                    <mxGeometry relative="1" as="geometry"/>
                </mxCell>
                <mxCell id="11" value="y = randint (1-3)" style="whiteSpace=wrap;html=1;fillColor=#1ba1e2;fontColor=#ffffff;strokeColor=#006EAF;" parent="1" vertex="1">
                    <mxGeometry x="465" y="250" width="95" height="60" as="geometry"/>
                </mxCell>
                <mxCell id="dQfxzq-ZpPpkhSZyHVF7-12" value="x == y&amp;nbsp;" style="rhombus;whiteSpace=wrap;html=1;fillColor=#0050ef;fontColor=#ffffff;strokeColor=#001DBC;" vertex="1" parent="1">
                    <mxGeometry x="472.5" y="360" width="80" height="80" as="geometry"/>
                </mxCell>
                <mxCell id="dQfxzq-ZpPpkhSZyHVF7-14" value="" style="shape=partialRectangle;whiteSpace=wrap;html=1;bottom=0;right=0;fillColor=none;direction=south;" vertex="1" parent="1">
                    <mxGeometry x="552.5" y="400" width="97.5" height="40" as="geometry"/>
                </mxCell>
                <mxCell id="dQfxzq-ZpPpkhSZyHVF7-16" value="x == 1&amp;nbsp;" style="rhombus;whiteSpace=wrap;html=1;fillColor=#d80073;fontColor=#ffffff;strokeColor=#A50040;" vertex="1" parent="1">
                    <mxGeometry x="330" y="440" width="80" height="80" as="geometry"/>
                </mxCell>
                <mxCell id="dQfxzq-ZpPpkhSZyHVF7-17" value="" style="shape=partialRectangle;whiteSpace=wrap;html=1;bottom=0;right=0;fillColor=none;" vertex="1" parent="1">
                    <mxGeometry x="360" y="400" width="112.5" height="40" as="geometry"/>
                </mxCell>
                <mxCell id="dQfxzq-ZpPpkhSZyHVF7-20" value="" style="shape=partialRectangle;whiteSpace=wrap;html=1;bottom=0;right=0;fillColor=none;direction=south;" vertex="1" parent="1">
                    <mxGeometry x="400" y="480" width="100" height="30" as="geometry"/>
                </mxCell>
                <mxCell id="dQfxzq-ZpPpkhSZyHVF7-22" value="has ganado o has perdido" style="shape=document;whiteSpace=wrap;html=1;boundedLbl=1;fillColor=#a20025;fontColor=#ffffff;strokeColor=#6F0000;" vertex="1" parent="1">
                    <mxGeometry x="462.5" y="510" width="90" height="60" as="geometry"/>
                </mxCell>
                <mxCell id="dQfxzq-ZpPpkhSZyHVF7-23" value="has empatado" style="shape=document;whiteSpace=wrap;html=1;boundedLbl=1;fillColor=#6a00ff;fontColor=#ffffff;strokeColor=#3700CC;" vertex="1" parent="1">
                    <mxGeometry x="620" y="440" width="80" height="50" as="geometry"/>
                </mxCell>
                <mxCell id="dQfxzq-ZpPpkhSZyHVF7-24" value="x == 2" style="rhombus;whiteSpace=wrap;html=1;fillColor=#fa6800;fontColor=#000000;strokeColor=#C73500;" vertex="1" parent="1">
                    <mxGeometry x="160" y="520" width="80" height="80" as="geometry"/>
                </mxCell>
                <mxCell id="dQfxzq-ZpPpkhSZyHVF7-25" value="" style="shape=partialRectangle;whiteSpace=wrap;html=1;bottom=0;right=0;fillColor=none;" vertex="1" parent="1">
                    <mxGeometry x="200" y="480" width="120" height="40" as="geometry"/>
                </mxCell>
                <mxCell id="dQfxzq-ZpPpkhSZyHVF7-26" value="has ganado o has perdido" style="shape=document;whiteSpace=wrap;html=1;boundedLbl=1;fillColor=#f0a30a;fontColor=#000000;strokeColor=#BD7000;" vertex="1" parent="1">
                    <mxGeometry x="260" y="590" width="90" height="60" as="geometry"/>
                </mxCell>
                <mxCell id="dQfxzq-ZpPpkhSZyHVF7-27" value="" style="shape=partialRectangle;whiteSpace=wrap;html=1;bottom=0;right=0;fillColor=none;direction=south;" vertex="1" parent="1">
                    <mxGeometry x="240" y="560" width="60" height="30" as="geometry"/>
                </mxCell>
                <mxCell id="dQfxzq-ZpPpkhSZyHVF7-28" value="" style="shape=partialRectangle;whiteSpace=wrap;html=1;bottom=0;right=0;fillColor=none;" vertex="1" parent="1">
                    <mxGeometry x="40" y="560" width="120" height="40" as="geometry"/>
                </mxCell>
                <mxCell id="dQfxzq-ZpPpkhSZyHVF7-30" value="x == 3" style="rhombus;whiteSpace=wrap;html=1;fillColor=#647687;strokeColor=#314354;fontColor=#ffffff;" vertex="1" parent="1">
                    <mxGeometry y="600" width="80" height="80" as="geometry"/>
                </mxCell>
                <mxCell id="dQfxzq-ZpPpkhSZyHVF7-31" value="has ganado o has perdido" style="shape=document;whiteSpace=wrap;html=1;boundedLbl=1;fillColor=#a0522d;fontColor=#ffffff;strokeColor=#6D1F00;" vertex="1" parent="1">
                    <mxGeometry x="120" y="680" width="90" height="60" as="geometry"/>
                </mxCell>
                <mxCell id="dQfxzq-ZpPpkhSZyHVF7-32" value="" style="shape=partialRectangle;whiteSpace=wrap;html=1;bottom=0;right=0;fillColor=none;direction=south;" vertex="1" parent="1">
                    <mxGeometry x="80" y="640" width="80" height="40" as="geometry"/>
                </mxCell>
                <mxCell id="dQfxzq-ZpPpkhSZyHVF7-34" value="" style="shape=partialRectangle;whiteSpace=wrap;html=1;bottom=0;right=0;fillColor=none;" vertex="1" parent="1">
                    <mxGeometry x="-120" y="640" width="120" height="40" as="geometry"/>
                </mxCell>
                <mxCell id="dQfxzq-ZpPpkhSZyHVF7-36" value="opcion no valida" style="shape=document;whiteSpace=wrap;html=1;boundedLbl=1;fillColor=#fa6800;strokeColor=#C73500;fontColor=#000000;" vertex="1" parent="1">
                    <mxGeometry x="-160" y="680" width="90" height="60" as="geometry"/>
                </mxCell>
                <mxCell id="dQfxzq-ZpPpkhSZyHVF7-37" value="" style="shape=partialRectangle;whiteSpace=wrap;html=1;bottom=1;right=1;left=1;top=0;fillColor=none;routingCenterX=-0.5;" vertex="1" parent="1">
                    <mxGeometry x="-140" y="740" width="280" height="60" as="geometry"/>
                </mxCell>
                <mxCell id="dQfxzq-ZpPpkhSZyHVF7-38" value="" style="shape=partialRectangle;whiteSpace=wrap;html=1;bottom=1;right=1;left=1;top=0;fillColor=none;routingCenterX=-0.5;" vertex="1" parent="1">
                    <mxGeometry y="800" width="500" height="60" as="geometry"/>
                </mxCell>
                <mxCell id="dQfxzq-ZpPpkhSZyHVF7-40" value="" style="shape=partialRectangle;whiteSpace=wrap;html=1;bottom=0;right=0;fillColor=none;direction=west;" vertex="1" parent="1">
                    <mxGeometry x="380" y="560" width="120" height="300" as="geometry"/>
                </mxCell>
                <mxCell id="dQfxzq-ZpPpkhSZyHVF7-45" value="" style="edgeStyle=none;html=1;" edge="1" parent="1" source="dQfxzq-ZpPpkhSZyHVF7-41" target="dQfxzq-ZpPpkhSZyHVF7-44">
                    <mxGeometry relative="1" as="geometry"/>
                </mxCell>
                <mxCell id="dQfxzq-ZpPpkhSZyHVF7-41" value="" style="shape=partialRectangle;whiteSpace=wrap;html=1;bottom=0;right=0;fillColor=none;direction=west;" vertex="1" parent="1">
                    <mxGeometry x="170" y="650" width="120" height="210" as="geometry"/>
                </mxCell>
                <mxCell id="dQfxzq-ZpPpkhSZyHVF7-44" value="fin" style="ellipse;whiteSpace=wrap;html=1;fillColor=#76608a;fontColor=#ffffff;strokeColor=#432D57;" vertex="1" parent="1">
                    <mxGeometry x="185" y="920" width="90" height="60" as="geometry"/>
                </mxCell>
                <mxCell id="PxXdWwA5yReewramgZHu-12" value="" style="shape=partialRectangle;whiteSpace=wrap;html=1;bottom=0;right=0;fillColor=none;direction=west;" vertex="1" parent="1">
                    <mxGeometry x="490" y="490" width="160" height="370" as="geometry"/>
                </mxCell>
            </root>
        </mxGraphModel>
    </diagram>
    <diagram id="O0ivBcQzWF12DPKkfSeP" name="Página-2">
        <mxGraphModel dx="298" dy="417" grid="1" gridSize="10" guides="1" tooltips="1" connect="1" arrows="1" fold="1" page="1" pageScale="1" pageWidth="1654" pageHeight="2336" math="0" shadow="0">
            <root>
                <mxCell id="0"/>
                <mxCell id="1" parent="0"/>
            </root>
        </mxGraphModel>
    </diagram>
    <diagram id="yGQSsCMeOvUu2lqHRu0x" name="Página-3">
        <mxGraphModel dx="297" dy="417" grid="1" gridSize="10" guides="1" tooltips="1" connect="1" arrows="1" fold="1" page="1" pageScale="1" pageWidth="1654" pageHeight="2336" math="0" shadow="0">
            <root>
                <mxCell id="0"/>
                <mxCell id="1" parent="0"/>
            </root>
        </mxGraphModel>
    </diagram>
</mxfile>